<svg xmlns="http://www.w3.org/2000/svg" xmlns:xlink="http://www.w3.org/1999/xlink" width="147.168" height="55.06" viewBox="0 0 147.168 55.06">
  <defs>
    <linearGradient id="linear-gradient" x1="0.5" y1="1.001" x2="0.5" y2="-0.017" gradientUnits="objectBoundingBox">
      <stop offset="0" stop-color="#571c56"/>
      <stop offset="0.47" stop-color="#fc1141"/>
      <stop offset="1" stop-color="#fcd000"/>
    </linearGradient>
  </defs>
  <g id="Group_1766" data-name="Group 1766" transform="translate(-3315.676 3037.186)">
    <g id="Group-55358-2_1_" data-name="Group-55358-2 (1)" transform="translate(3315.676 -3037.186)">
      <path id="Path_882" data-name="Path 882" d="M999.687,682.216l-1.288-4.741a27.489,27.489,0,0,0,4.8,54.054,27.919,27.919,0,0,0,29.427-20.307l-4.807-1.271a22.27,22.27,0,0,0,.59-2.971l4.937.626a27.431,27.431,0,0,0,.225-3.515h-4.978a22.408,22.408,0,0,0-.776-5.859l4.808-1.27a27.168,27.168,0,0,0-2.794-6.644l-4.313,2.457a22.792,22.792,0,0,0-3.652-4.687l3.519-3.47a28.016,28.016,0,0,0-12.523-7.138l-1.288,4.741a23.034,23.034,0,0,1,5.539,2.268l-2.576,4.4a18.166,18.166,0,0,1,1.828,1.2l3.1-4.053a22.96,22.96,0,0,1,2.4,2.058l-3.642,3.591a17.687,17.687,0,0,1,2.833,3.634l4.463-2.539a22.343,22.343,0,0,1,2.3,5.461l-4.978,1.316a17.341,17.341,0,0,1,.6,4.546h5.152a22.454,22.454,0,0,1-.187,2.894l-5.109-.652a17.208,17.208,0,0,1-.459,2.3l4.978,1.313a22.345,22.345,0,0,1-2.3,5.461l-4.463-2.539a17.941,17.941,0,0,1-21.53,7.739,17.538,17.538,0,0,1-11.46-19.565,17.752,17.752,0,0,1,17.559-14.518V681.46a23.33,23.33,0,0,0-5.943.765" transform="translate(-977.693 -676.576)" fill-rule="evenodd" fill="url(#linear-gradient)"/>
      <g id="Group_24" data-name="Group 24" transform="translate(62.66)">
        <path id="Path_20483" data-name="Path 20483" d="M12.255,1.6a8.492,8.492,0,0,1-4.2.843A7.1,7.1,0,0,1,2.863.494,6.712,6.712,0,0,1,.879-4.521a7.394,7.394,0,0,1,2.127-5.593,7.861,7.861,0,0,1,5.688-2.045,7.3,7.3,0,0,1,3.561.652v3.642a4.9,4.9,0,0,0-3-1.006,3.958,3.958,0,0,0-2.929,1.08,4.032,4.032,0,0,0-1.08,2.983A3.966,3.966,0,0,0,6.275-1.9,3.8,3.8,0,0,0,9.115-.851a5.668,5.668,0,0,0,3.14-1.006Zm9.446.843A7.481,7.481,0,0,1,16.23.488a7.071,7.071,0,0,1-1.991-5.294,7.071,7.071,0,0,1,2.066-5.4,7.806,7.806,0,0,1,5.586-1.95,7.391,7.391,0,0,1,5.436,1.95A6.933,6.933,0,0,1,29.3-5.051,7.359,7.359,0,0,1,27.266.426,7.564,7.564,0,0,1,21.7,2.438ZM21.809-8.87a2.865,2.865,0,0,0-2.365,1.047A4.615,4.615,0,0,0,18.6-4.861q0,4.009,3.235,4.009,3.085,0,3.085-4.118Q24.921-8.87,21.809-8.87ZM45.7,2.1H41.407V.182h-.054a4.816,4.816,0,0,1-4.308,2.256A5.276,5.276,0,0,1,32.845.6a7.623,7.623,0,0,1-1.59-5.144,8.3,8.3,0,0,1,1.753-5.532A5.719,5.719,0,0,1,37.6-12.159a3.908,3.908,0,0,1,3.751,1.93h.054v-8.277H45.7ZM41.489-4.67V-5.717A3.293,3.293,0,0,0,40.7-7.973a2.6,2.6,0,0,0-2.052-.9,2.587,2.587,0,0,0-2.229,1.121,5.207,5.207,0,0,0-.8,3.078,4.506,4.506,0,0,0,.775,2.827,2.572,2.572,0,0,0,2.147.992A2.583,2.583,0,0,0,40.666-1.9,4.362,4.362,0,0,0,41.489-4.67ZM61.821-3.637H52.742Q52.96-.607,56.561-.607A7.456,7.456,0,0,0,60.6-1.694V1.4a10.6,10.6,0,0,1-5.015,1.033A7.06,7.06,0,0,1,50.35.569a7.06,7.06,0,0,1-1.862-5.212A7.448,7.448,0,0,1,50.5-10.134a6.7,6.7,0,0,1,4.947-2.025,6.082,6.082,0,0,1,4.709,1.808,6.961,6.961,0,0,1,1.665,4.906ZM57.839-6.274q0-2.99-2.419-2.99a2.31,2.31,0,0,0-1.787.856,3.886,3.886,0,0,0-.917,2.134ZM73.455-7.946a3.725,3.725,0,0,0-1.808-.421,2.6,2.6,0,0,0-2.188,1.026,4.477,4.477,0,0,0-.788,2.793V2.1H64.376V-11.819h4.295v2.582h.054a3.715,3.715,0,0,1,3.67-2.827,2.766,2.766,0,0,1,1.06.163Zm1.25,9.677V-1.748A9.144,9.144,0,0,0,76.819-.8a7.007,7.007,0,0,0,1.991.313A4.27,4.27,0,0,0,80.61-.8a1.01,1.01,0,0,0,.659-.951.88.88,0,0,0-.3-.68A2.779,2.779,0,0,0,80.2-2.9a8.714,8.714,0,0,0-1.026-.367q-.557-.163-1.074-.367a10.287,10.287,0,0,1-1.461-.673,4.223,4.223,0,0,1-1.06-.836,3.285,3.285,0,0,1-.652-1.1,4.393,4.393,0,0,1-.224-1.481,3.814,3.814,0,0,1,.51-2.011,4.163,4.163,0,0,1,1.359-1.379,6.21,6.21,0,0,1,1.944-.788,10.134,10.134,0,0,1,2.276-.251,12.631,12.631,0,0,1,1.876.143,14,14,0,0,1,1.876.415v3.316A6.777,6.777,0,0,0,82.8-9a7.367,7.367,0,0,0-1.828-.238,4.05,4.05,0,0,0-.8.075,2.619,2.619,0,0,0-.659.217,1.21,1.21,0,0,0-.449.367.845.845,0,0,0-.163.51.942.942,0,0,0,.245.652,2.125,2.125,0,0,0,.639.469,6.306,6.306,0,0,0,.877.353q.482.156.958.319a12.458,12.458,0,0,1,1.549.652,4.954,4.954,0,0,1,1.189.829,3.256,3.256,0,0,1,.761,1.114,3.961,3.961,0,0,1,.265,1.522,3.971,3.971,0,0,1-.537,2.113,4.3,4.3,0,0,1-1.427,1.427,6.472,6.472,0,0,1-2.052.8,11.377,11.377,0,0,1-2.412.251A12.436,12.436,0,0,1,74.705,1.731Z" transform="translate(-0.879 18.506)" fill="#571c56"/>
        <path id="Path_20482" data-name="Path 20482" d="M10.641.748q0,5.826-5.578,5.826a7.489,7.489,0,0,1-3.429-.744V4.135a7.043,7.043,0,0,0,3.409.992q3.9,0,3.9-4.152V-.182H8.906A3.961,3.961,0,0,1,5.27,1.842,3.971,3.971,0,0,1,2.094.432a5.636,5.636,0,0,1-1.2-3.786,6.585,6.585,0,0,1,1.3-4.287A4.331,4.331,0,0,1,5.735-9.23,3.448,3.448,0,0,1,8.906-7.516h.041V-8.983h1.694ZM8.947-3.188v-1.56A3.026,3.026,0,0,0,8.1-6.906a2.805,2.805,0,0,0-2.123-.9A2.941,2.941,0,0,0,3.514-6.664a5.094,5.094,0,0,0-.888,3.2A4.373,4.373,0,0,0,3.478-.642,2.753,2.753,0,0,0,5.735.417,2.948,2.948,0,0,0,8.054-.6,3.773,3.773,0,0,0,8.947-3.188Zm6.817,4.782H14.071V-14.064h1.694Zm7.85.248A4.906,4.906,0,0,1,19.87.36a5.49,5.49,0,0,1-1.4-3.93,5.719,5.719,0,0,1,1.456-4.163,5.236,5.236,0,0,1,3.935-1.5,4.744,4.744,0,0,1,3.693,1.456,5.775,5.775,0,0,1,1.327,4.039A5.682,5.682,0,0,1,27.452.319,5.013,5.013,0,0,1,23.615,1.842ZM23.739-7.8a3.222,3.222,0,0,0-2.582,1.11,4.56,4.56,0,0,0-.95,3.063,4.313,4.313,0,0,0,.961,2.964A3.265,3.265,0,0,0,23.739.417,3.1,3.1,0,0,0,26.264-.647a4.617,4.617,0,0,0,.883-3.026,4.7,4.7,0,0,0-.883-3.057A3.083,3.083,0,0,0,23.739-7.8ZM33.324.066h-.041V1.595H31.589V-14.064h1.694v6.941h.041A4.006,4.006,0,0,1,36.981-9.23a3.877,3.877,0,0,1,3.187,1.42A5.864,5.864,0,0,1,41.319-4,6.556,6.556,0,0,1,40.028.247a4.3,4.3,0,0,1-3.533,1.6A3.479,3.479,0,0,1,33.324.066ZM33.283-4.2v1.477A3.145,3.145,0,0,0,34.135-.5,2.83,2.83,0,0,0,36.3.417,2.835,2.835,0,0,0,38.711-.761a5.4,5.4,0,0,0,.873-3.274A4.264,4.264,0,0,0,38.768-6.8a2.7,2.7,0,0,0-2.21-1,3,3,0,0,0-2.376,1.028A3.774,3.774,0,0,0,33.283-4.2Zm19.243.93H45.058a3.956,3.956,0,0,0,.95,2.727,3.276,3.276,0,0,0,2.5.961A5.2,5.2,0,0,0,51.793-.761V.83a6.139,6.139,0,0,1-3.688,1.012A4.47,4.47,0,0,1,44.583.4,5.9,5.9,0,0,1,43.3-3.653a5.784,5.784,0,0,1,1.4-4.023A4.488,4.488,0,0,1,48.177-9.23,3.976,3.976,0,0,1,51.39-7.888a5.6,5.6,0,0,1,1.136,3.729ZM50.791-4.706a3.447,3.447,0,0,0-.708-2.283A2.411,2.411,0,0,0,48.146-7.8a2.736,2.736,0,0,0-2.035.857,3.891,3.891,0,0,0-1.033,2.241Z" transform="translate(-0.878 39.578)" fill="#571c56"/>
      </g>
    </g>
  </g>
</svg>
